M48
;DRILL file {KiCad 4.0.2+e4-6225~38~ubuntu16.04.1-stable} date Sun 10 Jul 2016 07:48:53 PM PDT
;FORMAT={-:-/ absolute / inch / decimal}
FMAT,2
INCH,TZ
T1C0.013
T2C0.039
T3C0.040
%
G90
G05
M72
T1
X5.83Y-4.82
X5.83Y-5.04
X5.89Y-4.75
X5.935Y-4.53
X6.005Y-4.68
X6.005Y-4.82
X6.1Y-4.825
X6.315Y-5.05
X6.365Y-4.575
X6.365Y-4.615
X6.365Y-4.65
X6.44Y-5.05
X6.55Y-5.4
X6.555Y-4.575
X6.555Y-4.68
X6.555Y-4.715
X6.555Y-4.775
X6.5552Y-4.3702
T2
X5.825Y-4.875
X5.825Y-4.975
X6.045Y-4.875
X6.045Y-4.975
T3
X6.175Y-4.925
X6.275Y-4.925
X6.375Y-4.925
X6.475Y-4.925
X6.63Y-4.3
X6.63Y-4.4
X6.63Y-4.5
X6.63Y-4.6
X6.63Y-4.7
X6.63Y-4.8
X6.63Y-4.9
X6.63Y-5.
X6.63Y-5.1
X6.63Y-5.2
X6.63Y-5.3
X6.63Y-5.4
T0
M30
